<?xml version="1.0" encoding="utf-8"?>
<!-- Generator: Adobe Illustrator 22.1.0, SVG Export Plug-In . SVG Version: 6.00 Build 0)  -->
<svg version="1.1" id="Calque_1" xmlns="http://www.w3.org/2000/svg" xmlns:xlink="http://www.w3.org/1999/xlink" x="0px" y="0px"
	 width="512px" height="157.5px" viewBox="0 0 512 157.5" style="enable-background:new 0 0 512 157.5;" xml:space="preserve">
<style type="text/css">
	.st0{fill:#1D1D1B;}
	.st1{fill:#FFFFFF;}
	.st2{fill:url(#SVGID_1_);}
	.st3{fill:url(#SVGID_2_);}
	.st4{fill:#606060;}
	.st5{fill:url(#SVGID_3_);}
	.st6{fill:url(#SVGID_4_);}
	.st7{fill:url(#SVGID_5_);}
	.st8{fill:url(#SVGID_6_);}
	.st9{fill:url(#SVGID_7_);}
	.st10{fill:url(#SVGID_8_);}
	.st11{fill:url(#SVGID_9_);}
	.st12{fill:url(#SVGID_10_);}
	.st13{fill:url(#SVGID_11_);}
	.st14{fill:url(#SVGID_12_);}
	.st15{fill:url(#SVGID_13_);}
	.st16{fill:url(#SVGID_14_);}
	.st17{fill:url(#SVGID_15_);}
	.st18{fill:url(#SVGID_16_);}
	.st19{fill:url(#SVGID_17_);}
	.st20{fill:url(#SVGID_18_);}
	.st21{fill:url(#SVGID_19_);}
	.st22{fill:url(#SVGID_20_);}
	.st23{fill:url(#SVGID_21_);}
	.st24{fill:url(#SVGID_22_);}
</style>
<g>
	<g>
		
			<linearGradient id="SVGID_1_" gradientUnits="userSpaceOnUse" x1="-295.5223" y1="-1477.842" x2="2.7921" y2="-1477.842" gradientTransform="matrix(0 1 -1 0 -1227.7871 206.1128)">
			<stop  offset="0" style="stop-color:#FFFFFF"/>
			<stop  offset="1.208329e-02" style="stop-color:#F5F5F5"/>
			<stop  offset="7.204700e-02" style="stop-color:#C8C8C8"/>
			<stop  offset="0.1378" style="stop-color:#9F9F9E"/>
			<stop  offset="0.2079" style="stop-color:#7C7C7B"/>
			<stop  offset="0.2837" style="stop-color:#5E5E5D"/>
			<stop  offset="0.3669" style="stop-color:#464645"/>
			<stop  offset="0.4604" style="stop-color:#343432"/>
			<stop  offset="0.5703" style="stop-color:#272725"/>
			<stop  offset="0.7122" style="stop-color:#1F1F1D"/>
			<stop  offset="1" style="stop-color:#1D1D1B"/>
		</linearGradient>
		<path class="st2" d="M250.1,36.6c-23.6-0.5-37.7,18.5-38.1,40.7c-0.4,22.9,15.1,40.2,38.1,40.7c23.6,0.5,37.7-18.5,38.1-40.7
			C287.7,54.4,273.7,37.1,250.1,36.6z M250.1,98.9c-13.3,0.4-18.8-9.8-19.1-21.6c0.3-12.5,5.8-21.2,19.1-21.6
			c13.3-0.4,18.8,9.8,19.1,21.6C269.4,89.8,262.9,98.5,250.1,98.9z"/>
		
			<linearGradient id="SVGID_2_" gradientUnits="userSpaceOnUse" x1="-295.5223" y1="-1559.86" x2="2.7921" y2="-1559.86" gradientTransform="matrix(0 1 -1 0 -1227.7871 206.1128)">
			<stop  offset="0" style="stop-color:#FFFFFF"/>
			<stop  offset="1.208329e-02" style="stop-color:#F5F5F5"/>
			<stop  offset="7.204700e-02" style="stop-color:#C8C8C8"/>
			<stop  offset="0.1378" style="stop-color:#9F9F9E"/>
			<stop  offset="0.2079" style="stop-color:#7C7C7B"/>
			<stop  offset="0.2837" style="stop-color:#5E5E5D"/>
			<stop  offset="0.3669" style="stop-color:#464645"/>
			<stop  offset="0.4604" style="stop-color:#343432"/>
			<stop  offset="0.5703" style="stop-color:#272725"/>
			<stop  offset="0.7122" style="stop-color:#1F1F1D"/>
			<stop  offset="1" style="stop-color:#1D1D1B"/>
		</linearGradient>
		<path class="st3" d="M348.9,40c-11.5-4.8-25-5-35.9,1.9c0-12.9,0-25.8,0-38.7c0-2.7-2.8-3.8-5-2.9c-4.1,1.9-8.3,3.7-12.4,5.6
			c-1,0.5-1.6,1.8-1.6,2.9c0,35.3,0,70.6,0,105.9c0,1.8,1.5,3.1,3.3,3.1c4.1,0,8.3,0,12.4,0c1,0,1.7-0.3,2.2-0.8c0,0,0.1,0,0.1,0
			c0,0,0.1,0,0.1-0.1c0.5-0.5,0.9-1.2,0.9-2.2c0-0.7,0-1.3,0-2c10.1,6.1,21.5,6.5,32.4,3.3c16.2-4.8,23.8-20.7,24.8-36.4
			C371,63.8,364.2,46.5,348.9,40z M332.1,55.6c13.3,0.4,18.8,9.2,19.1,21.6c0.3,12.5-6.2,21.3-19.1,21.6
			c-13.2,0.4-18.8-9.8-19.1-21.6C312.7,64.9,319.2,56,332.1,55.6z"/>
		
			<linearGradient id="SVGID_3_" gradientUnits="userSpaceOnUse" x1="-295.5223" y1="-1667.2804" x2="2.7921" y2="-1667.2804" gradientTransform="matrix(0 1 -1 0 -1227.7871 206.1128)">
			<stop  offset="0" style="stop-color:#FFFFFF"/>
			<stop  offset="1.208329e-02" style="stop-color:#F5F5F5"/>
			<stop  offset="7.204700e-02" style="stop-color:#C8C8C8"/>
			<stop  offset="0.1378" style="stop-color:#9F9F9E"/>
			<stop  offset="0.2079" style="stop-color:#7C7C7B"/>
			<stop  offset="0.2837" style="stop-color:#5E5E5D"/>
			<stop  offset="0.3669" style="stop-color:#464645"/>
			<stop  offset="0.4604" style="stop-color:#343432"/>
			<stop  offset="0.5703" style="stop-color:#272725"/>
			<stop  offset="0.7122" style="stop-color:#1F1F1D"/>
			<stop  offset="1" style="stop-color:#1D1D1B"/>
		</linearGradient>
		<path class="st5" d="M508.1,35.7c-4.1,0-8.3,0-12.4,0c-1.8,0-3.5,2.2-3.5,4c0,8.9,0,17.9,0,26.8c0,11.9,1.9,30.4-14,32.3
			c-18.4,2.2-17.9-18.3-17.9-31c0-9.4,0-18.8,0-28.2c0-1.8-1.4-4-3.2-4c-0.3,0-0.5,0-0.8,0c-3.8,0-7.7,0-11.5,0c-2,0-4,0-6,0
			c-4,0-8,0-12,0c-0.4,0-0.8,0-1.2,0c-1.6,0-2.7,1.4-3.2,2.8c-6,16.5-11.9,33.1-17.9,49.6c-5.9-16.5-11.8-33.2-17.7-49.7
			c-0.5-1.4-1.6-2.7-3.2-2.7c-4.4,0-8.8,0-13.2,0c-2,0-3.9,2.5-3.2,4.5c8.9,24.9,17.8,50,26.7,74.9c0.5,1.4,1.6,2.7,3.2,2.7
			c4.9,0,9.7,0,14.6,0c1.6,0,2.7-0.9,3.2-2.3c7.2-19.9,14.5-40.2,21.7-59.6c1.6,0,3.2,0,4.8,0c0,7.7-0.1,15.9,0.1,24
			c0.3,13.4,5.8,26.3,17.3,33.6c9.8,6.3,23.5,6,33.7,0.4c0.1,4.4,0.1,8.8-0.9,13.1c-3.1,14.1-25.6,15.8-33.2,4.9
			c-1.1-1.6-2.8-2-4.5-1.2c-3.7,1.8-7.4,3.7-11.2,5.5c-1.6,0.8-2.1,3.1-1.2,4.5c8.9,14.8,25.7,18.8,42,16.1
			c18.1-3,26.9-19.5,28.5-36.7c0-26.8,0-53.6,0-80.4C512,37.8,509.9,35.7,508.1,35.7z"/>
	</g>
	<linearGradient id="SVGID_4_" gradientUnits="userSpaceOnUse" x1="41.2396" y1="114.884" x2="144.6298" y2="-16.0307">
		<stop  offset="0" style="stop-color:#0066FF"/>
		<stop  offset="0.1272" style="stop-color:#1F82FC"/>
		<stop  offset="0.3091" style="stop-color:#45A5F9"/>
		<stop  offset="0.49" style="stop-color:#63C0F6"/>
		<stop  offset="0.6673" style="stop-color:#79D3F4"/>
		<stop  offset="0.8393" style="stop-color:#86DFF3"/>
		<stop  offset="1" style="stop-color:#8AE3F3"/>
	</linearGradient>
	<path class="st6" d="M181.2,13.2L181.2,13.2c-8.6-8.6-19.8-12.8-31-12.8c-11.2,0-22.4,4.3-31,12.8L104,28.4c-1.4,1.4-1.4,3.7,0,5.1
		l3.8,3.8c1.4,1.4,3.7,1.4,5.1,0l14.7-14.7c5.4-5.4,12.6-9,20.3-9.6c11.3-0.8,22,4.2,28.5,13.8c2.3,3.3,3.8,7.1,4.6,11
		c2.1,10.7-1.1,21.1-8.5,28.5l-22.2,22.2l0,0l-8.9,8.9l0,0l-16.1,16.1l-26.9,26.9c-0.7,0.7-1.8,0.7-2.5,0L59,103.7l-6.3-6.3
		l37.3-37.3c1.4-1.4,1.4-3.7,0-5.1l-3.8-3.8c-1.4-1.4-3.7-1.4-5.1,0L43.9,88.6L22.2,66.9c-5.4-5.4-9-12.6-9.6-20.3
		c-0.8-11.3,4.3-22,13.8-28.5c3.3-2.3,7.1-3.8,11-4.6c10.7-2.1,21.1,1.1,28.5,8.5l68.4,68.4c1.4,1.4,3.7,1.4,5.1,0l3.8-3.8
		c1.4-1.4,1.4-3.7,0-5.1L74.9,13.2c-8.6-8.6-19.8-12.8-31-12.8s-22.4,4.3-31,12.8v0c-17.1,17.1-17.1,44.9,0,62L35,97.4l0,0
		l59.5,59.5c0.7,0.7,1.6,1,2.5,1c0.9,0,1.8-0.3,2.5-1L159,97.4l22.2-22.2C198.3,58.1,198.3,30.4,181.2,13.2z"/>
</g>
</svg>
